<?xml version="1.0" encoding="utf-8"?>
<!-- Generator: Adobe Illustrator 22.1.0, SVG Export Plug-In . SVG Version: 6.00 Build 0)  -->
<svg version="1.1" id="Слой_1" xmlns="http://www.w3.org/2000/svg" xmlns:xlink="http://www.w3.org/1999/xlink" x="0px" y="0px"
	 viewBox="0 0 1849 1890" style="enable-background:new 0 0 1849 1890;" xml:space="preserve">
<style type="text/css">
	.st0{fill:#FFFFFF;}
	.st1{fill:none;stroke:#F203F9;stroke-width:4;stroke-miterlimit:10;}
	.st2{fill-rule:evenodd;clip-rule:evenodd;}
	.st3{fill:none;stroke:#FBFBFB;stroke-width:4;stroke-miterlimit:10;}
	.st4{fill-rule:evenodd;clip-rule:evenodd;fill:#FFFFFF;}
	.st5{fill:none;stroke:#F9F7F9;stroke-width:4;stroke-miterlimit:10;}
	.st6{fill:#FFFFFF;stroke:#FBFBFB;stroke-width:4;stroke-miterlimit:10;}
	.st7{fill:#F203F9;}
	.st8{fill:#050505;stroke:#F203F9;stroke-width:4;stroke-miterlimit:10;}
</style>
<g>
	<g>
		<path class="st0" d="M4552.4-116.7c-2-0.6-6.9-2.7-7.9,0.6c-1.1,3.7,5.1,4.8,7.3,4.9c3.9,0.1,8.9-1,11.3-4.3
			c3.4-4.7,5-8.3,4.7-14.3c0-1-1.5-1-1.5,0c0.2,5-1.6,10.6-5.3,14.2c-2.2,2.1-5.4,3-8.4,3c-0.8,0-3.2,0.1-3.8-0.5
			c-4-4.5,2.9-2.1,3.3-2.1C4552.9-115,4553.3-116.5,4552.4-116.7L4552.4-116.7z"/>
	</g>
</g>
<g>
	<g>
		<path class="st0" d="M4565.4-130.6c-0.7,1.2-0.3,1.3-0.9,0.7c-0.4-0.4,0.2-3.7,0.2-4.3c0-1.7,0.2-3.5-0.3-5.2
			c-0.1-0.3-0.4-0.5-0.7-0.6c-2.3-0.2-3.3,3.1-4,4.8c0.5,0.1,1,0.1,1.5,0.2c-0.2-2.2,0.5-7-2.9-7.1c-3.3-0.1-2.8,5.2-3.1,7.3
			c0.4-0.2,0.9-0.4,1.3-0.5c-0.9-0.8-0.7-2.3-2.4-1.8c-2,0.7-1.5,4.7-1.4,6c0.5-0.1,0.9-0.3,1.4-0.4c-1.2-2.4-3.9-5.3-5.1-1.5
			c-0.7,2.1,0.9,5.7,1.5,7.6c0.6,1.9,2.4,5.4,0.4,6.9c0.3-0.2-1.9,0.4-1.8,0.4c-0.9,0.5-0.1,1.7,0.8,1.3c2.1-1.1,3.1,0,3.5-3
			c0.2-1.7-0.6-3.7-1.1-5.3c-0.3-1.1-1-2.4-1.1-3.6c0-1.2,0.3-4.8,1.7-2.1c0.3,0.6,1.5,0.4,1.4-0.4c-0.1-1.1-0.6-4.7,1.2-3.2
			c0.5,0.5,1.2,0.1,1.3-0.5c0.2-1.6-0.4-3.3,1.7-3.2c1.9,0.1,1.2,1.1,1.4,3c0.1,0.8,1.2,1,1.5,0.2c2.6-7,1.8,4,1.8,5.7
			c0,1.2-0.2,1.9,0.9,2.4c0.3,0.1,0.7,0.1,0.9-0.1c0.8-0.9,1.3-2.1,2-3.1C4567.2-130.7,4565.9-131.5,4565.4-130.6L4565.4-130.6z"/>
	</g>
</g>
<g>
	<path class="st1" d="M3906.5,797.2c-9,4.8-10.9,15.3-14.3,31.2c-13.4,62.3-18.9,57.2-18.2,78c0.9,26.9,10,34.4,2.6,49.4
		c-5.6,11.4-13.3,11.9-24.7,26c-12.2,15.1-16.2,30.4-18.8,40c-11.2,42.1,6.6,48.7,5.3,90.1c-1.4,45.8-19.4,58.7-6.9,76.9
		c9.8,14.2,29.5,16.3,55.5,19.2c27.6,3,51.7,5.6,65.7-8.7c14.2-14.5,11-39,5.8-79.6c-2.9-22.7-8.9-26.8-9.1-46.8
		c-0.2-12.9,1.7-20.3,1.3-44.2c0-1.5-0.2-10.9-1.3-23.4c-1.2-14.4-1.9-21.6-3.9-26c-6.4-13.8-17.9-12-26-23.4
		c-6.8-9.7-4.4-22.1-1.3-46.8c3.2-25.7,8.1-31.4,14.3-66.3c5.3-29.9,3.9-38-1.3-42.9C3925.1,794,3914.1,793.2,3906.5,797.2z"/>
	<path class="st1" d="M4186.1,1104.7c-6.4-7.8-17.1-7.7-33.4-7.9c-63.7-0.9-59.8-7.3-80-2.6c-26.2,6.2-31.8,16.5-47.9,12.2
		c-12.3-3.3-14.3-10.7-30.3-19.1c-17.1-9-33-10-42.9-10.6c-43.5-2.7-46.4,16-87.3,22.8c-45.2,7.6-61.3-7.6-76.7,8.3
		c-12,12.4-10.2,32.2-7.9,58.2c2.5,27.7,4.6,51.8,21.4,62.7c17,11.1,40.4,3.2,79.2-9.9c21.7-7.3,24.5-13.9,44.1-18.1
		c12.7-2.7,20.2-2.3,43.6-7.4c1.5-0.3,10.7-2.4,22.7-5.9c13.9-4,20.8-6.1,24.7-8.9c12.3-8.9,8.2-19.9,17.9-30.1
		c8.1-8.6,20.8-8.6,45.6-10.4c25.8-1.9,32.4,1.8,67.8,1c30.4-0.6,38-3.6,41.8-9.7C4192.8,1122.3,4191.5,1111.3,4186.1,1104.7z"/>
	<path class="st1" d="M3819.1,797.2c-9,4.8-10.9,15.3-14.3,31.2c-13.4,62.3-18.9,57.2-18.2,78c0.9,26.9,10,34.4,2.6,49.4
		c-5.6,11.4-13.3,11.9-24.7,26c-12.2,15.1-16.2,30.4-18.8,40c-11.2,42.1,6.6,48.7,5.3,90.1c-1.4,45.8-19.4,58.7-6.9,76.9
		c9.8,14.2,29.5,16.3,55.5,19.2c27.6,3,51.7,5.6,65.7-8.7c14.2-14.5,11-39,5.8-79.6c-2.9-22.7-8.9-26.8-9.1-46.8
		c-0.2-12.9,1.7-20.3,1.3-44.2c0-1.5-0.2-10.9-1.3-23.4c-1.2-14.4-1.9-21.6-3.9-26c-6.4-13.8-17.9-12-26-23.4
		c-6.8-9.7-4.4-22.1-1.3-46.8c3.2-25.7,8.1-31.4,14.3-66.3c5.3-29.9,3.9-38-1.3-42.9C3837.6,794,3826.6,793.2,3819.1,797.2z"/>
</g>
<g>
	<path class="st1" d="M4444.8,482.8h-135.4c-22.5,0-40.7-18.2-40.7-40.7c4.6-61.6,6.9-128.2,5.3-199.2c-0.8-38.2-2.7-75-5.3-110.3
		c0-2.7,0.3-17.1,11.9-28.8c7.4-7.4,17.5-11.9,28.8-11.9h135.4c22.5,0,40.7,18.2,40.7,40.7v309.5
		C4485.5,464.6,4467.3,482.8,4444.8,482.8z"/>
	<path class="st1" d="M4533.8,488.6l-110.9-64c-21.2-12.2-28.5-39.4-16.2-60.6c29.3-32.2,63.6-75.8,94.8-131.7
		c26.7-47.9,44.4-92.7,56.3-130c1.5-2.6,9.6-16,26.9-20.7c11-2.9,23.1-1.7,33.7,4.4l110.9,64c21.2,12.2,28.5,39.4,16.2,60.6
		l-151.1,261.7C4582.2,493.6,4555,500.9,4533.8,488.6z"/>
	<path class="st1" d="M4581,494.9l-29-97.4c-9.1-30.5,8.3-62.5,38.7-71.6c44.9-9,93.7-20.9,145.3-36.8c42.9-13.2,82.6-27.4,119-42
		c3.7-1.1,23.3-6.6,43.8,4.5c13,7,23.2,19,27.8,34.2l29,97.4c9.1,30.5-8.3,62.5-38.7,71.6l-264.3,78.7
		C4622.1,542.7,4590,525.4,4581,494.9z"/>
</g>
<g>
	<path class="st1" d="M4871.4,988.7c-66.8-90.9-203.4-131.6-286.8-79.9c-114,70.7-116.4,306.1,7.3,383
		c97.6,60.6,263.2,16.2,312.2-96.2C4947.6,1095.7,4875.9,994.8,4871.4,988.7z"/>
	<path class="st1" d="M4714.2,1080.3c-10.1,0.1-12.3-14-42.5-61c-27.1-42.2-35.5-46.6-33.3-57.3c7.4-35.8,115.2-56.4,133.1-27.7
		c3.5,5.5,2.8,11.7-9.2,46.2C4739,1046.9,4727.1,1080.1,4714.2,1080.3z"/>
	<path class="st1" d="M4739.5,1100.6c2.8-9.7,17-7.8,70.6-23.4c48.1-14,54.8-20.8,64.4-15.6c32.2,17.3,21.2,126.5-11.3,135.5
		c-6.3,1.7-12-0.6-41.7-22C4764.5,1133.9,4736,1113,4739.5,1100.6z"/>
	<path class="st1" d="M4697.5,1106.4c6.7,7.6-2.6,18.5-18.3,72.1c-14.1,48.1-11.9,57.3-21.5,62.7c-32,17.8-118-50.2-108.1-82.5
		c1.9-6.2,7-9.8,41-23.3C4656,1109.5,4689,1096.7,4697.5,1106.4z"/>
</g>
<g>
	<rect x="5340" y="-460.6" class="st2" width="567.7" height="319.2"/>
	<g>
		<line class="st3" x1="5495.3" y1="-415.2" x2="5409.4" y2="-179.8"/>
		<line class="st4" x1="5495.3" y1="-415.2" x2="5409.4" y2="-179.8"/>
	</g>
	<g>
		<line class="st3" x1="5517" y1="-356.3" x2="5452.1" y2="-179.7"/>
		<line class="st4" x1="5517" y1="-356.3" x2="5452.1" y2="-179.7"/>
	</g>
	<g>
		<line class="st5" x1="5537.6" y1="-297.9" x2="5495" y2="-179.8"/>
	</g>
	<g>
		<line class="st3" x1="5559.1" y1="-237.2" x2="5535.2" y2="-179.8"/>
		<line class="st4" x1="5559.1" y1="-237.2" x2="5535.2" y2="-179.8"/>
	</g>
	<line class="st6" x1="5581.6" y1="-178.3" x2="5495.3" y2="-414.6"/>
	<line class="st6" x1="5517" y1="-356.3" x2="5474.4" y2="-357"/>
	<line class="st6" x1="5538.1" y1="-298.4" x2="5453.4" y2="-298.8"/>
	<line class="st6" x1="5560.1" y1="-236.7" x2="5430.9" y2="-238.1"/>
	<line class="st6" x1="5535.2" y1="-179.8" x2="5474.9" y2="-357.4"/>
	<line class="st6" x1="5452" y1="-179.8" x2="5430.9" y2="-238.1"/>
	<line class="st6" x1="5495" y1="-179.8" x2="5453.3" y2="-298.6"/>
	<line class="st6" x1="5452" y1="-179.9" x2="5581.7" y2="-178.2"/>
</g>
<g>
	<path class="st1" d="M3803.5,76.6c10.7-9.7,36.4-9,48.1,1.4c8.8,7.8,3.4,15.6,5.4,47.3c2,30.8,8.1,38.6,0.5,45.4
		c-10.4,9.5-36.7,7.9-48.6-3.2c-7.4-7-4.2-13.1-5.9-43.1C3801,90.3,3796.1,83.3,3803.5,76.6z"/>
	<path class="st1" d="M3872.6,76.6c10.7-9.7,36.4-9,48.1,1.4c8.8,7.8,3.4,15.6,5.4,47.3c2,30.8,8.1,38.6,0.5,45.4
		c-10.4,9.5-36.7,7.9-48.6-3.2c-7.4-7-4.2-13.1-5.9-43.1C3870.2,90.3,3865.2,83.3,3872.6,76.6z"/>
	<path class="st1" d="M3941.7,76.6c10.7-9.7,36.4-9,48.1,1.4c8.8,7.8,3.4,15.6,5.4,47.3c2,30.8,8.1,38.6,0.5,45.4
		c-10.4,9.5-36.7,7.9-48.6-3.2c-7.4-7-4.2-13.1-5.9-43.1C3939.3,90.3,3934.3,83.3,3941.7,76.6z"/>
	<path class="st1" d="M3779.2,22.5c30-29.7,84.8-28.3,118.8-27.5c32.9,0.8,85.7,2.1,116.1,33c7.5,7.6,17.1,20.5,17.3,119.1
		c0.2,88.4-7.5,100.5-16.2,109c-27.4,27.1-73.9,28.1-112.3,28.9c-37.6,0.8-83.2,1.8-111.2-23.4c-14.4-12.9-16.7-26-21.1-103.1
		C3764.3,46.6,3766.9,34.7,3779.2,22.5z"/>
	<path class="st1" d="M3704.7-30.3c67.1-88.4,284.3-90.8,373.7,5.8c51.7,55.9,13.7,94.2,39.4,350c17,169.2,41.8,233.7-3.8,279.2
		c-31.5,31.5-81,33.5-179.8,37.5c-118.8,4.8-180,7.3-216-29.6c-51.3-52.6,5.2-126.8,9.7-299.3C3733.5,101.5,3652.8,38.1,3704.7-30.3
		z"/>
</g>
<g>
	<g>
		<g>
			<g>
				<path class="st7" d="M4396.1,1688.9c-2.5-22.3-7.7-45.1-20-64.2c-12.9-20.1-33.1-32.9-56.6-36.6c-10.8-1.7-21.7-1.8-32.6-1.6
					c-8.7,0.1-18.1,0.9-26.6-1.3c-5.4-1.4-10.4-4.7-11.1-10.6c-0.6-4.7,1.7-9.4,3.8-13.4c7.3-13.4,17.4-25.3,25.5-38.2
					c11.6-18.4,20.6-38.3,25.4-59.5c4.8-20.8,6.9-42.5,3.8-63.7c-3.7-24.7-14.9-47.6-31.4-66.2c-31.1-35-78-50.6-123.9-42.2
					c-43.7,8-84.2,38-94.1,83c-8.5,38.8,5.8,79.4,25.8,112.4c10.3,16.9,22.9,32.1,37.7,45.3c12.6,11.2,27.2,19.9,39.4,31.5
					c2.8,2.6,6.7,6.3,6.2,10.5c-0.6,4.7-5.9,6.6-9.8,7.6c-7.2,2-14.9,2.4-22.4,3c-9.7,0.8-19.3,1.6-28.9,2.9
					c-22.9,3.2-45.6,9.9-64.8,23.2c-20.1,14-35,34-44.7,56.4c-4.1,9.4-7.3,19.1-10,29c-1,3.7,4.8,5.3,5.8,1.6
					c5.9-22.2,15.1-43.9,29.9-61.6c16.2-19.3,38.1-32,62.4-38.3c19.3-5.1,39-6,58.8-8c9.4-1,25-1.7,28.9-12.3
					c3.9-10.3-7.1-18.7-14.1-24.2c-15-11.8-30.5-22.7-43.8-36.5c-24.4-25.3-43-59.1-50.2-93.6c-4.9-23.5-3.6-48.5,7.7-70.1
					c10.3-19.8,27.5-35,47.4-44.8c41.5-20.5,92.4-17.3,130.3,9.5c18.7,13.2,33.9,31.5,43.2,52.5c10.5,23.7,12.1,50.1,8.1,75.4
					c-3.3,20.9-9.5,40.9-19.5,59.7c-8.1,15.2-18.4,28.9-28,43.2c-5.4,8-12.7,18.5-10.1,28.8c3.7,14.5,21.2,15.2,33.4,15.2
					c21.9,0,44.3-1.5,64.5,8.5c22,10.8,35.2,32.1,42,55c3.2,10.7,5.2,21.8,6.5,32.9C4390.5,1692.7,4396.6,1692.8,4396.1,1688.9
					L4396.1,1688.9z"/>
			</g>
		</g>
		<g>
			<g>
				<path class="st7" d="M4154.2,1394.6c2.3-22.4,22.7-39.8,45.8-38.7c5.4,0.3,12.6,1.8,14.9,7.4c1.3,3.2,0.5,6.9-0.4,10.1
					c-3.1,11.6-7.9,22.6-10.7,34.3c-4.3,18.1-5.3,36.9-3.3,55.4c0.4,3.8,6.4,3.8,6,0c-2.1-19.3-0.9-38.7,4-57.5
					c1.9-7.2,4.3-14.2,6.7-21.1c1.7-4.9,3.6-10,4.1-15.2c1.2-11.5-8.2-18.1-18.8-19.2c-15.1-1.6-31.8,4.3-41.9,15.8
					c-6.9,7.9-11.5,18.3-12.5,28.7C4147.8,1398.4,4153.8,1398.4,4154.2,1394.6L4154.2,1394.6z"/>
			</g>
		</g>
	</g>
	<g>
		<g>
			<path class="st7" d="M4219.7,1498.6c3.9,0,3.9-6,0-6C4215.9,1492.6,4215.9,1498.6,4219.7,1498.6L4219.7,1498.6z"/>
		</g>
	</g>
</g>
<path class="st1" d="M885,2566c-478.8,0-867,388.2-867,867s388.2,867,867,867s867-388.2,867-867S1363.8,2566,885,2566z"/>
<path class="st8" d="M920,76C441.2,76,53,464.2,53,943s388.2,867,867,867s867-388.2,867-867S1398.8,76,920,76z M1704.8,1255
	c-65.3,171.9-208.9,358.2-304.8,336.2c-21.3-4.9-32.6-18.3-78.6-85.2c-97-141-117.5-184.2-160.6-246.4c0,0-207.9-300.4-201.8-323.7
	c1.1-4.4,2.8-8.6,2.8-8.6s0.8-2,1.7-4c3.4-7.2,217.2,7.3,285.5,8.7c131,2.7,266.7-32.1,329.6-48.2c90.8-23.3,112.6-37.7,138.1-21.3
	c69.5,44.6,44,239.3-6.2,376.9C1708.2,1246.3,1706.1,1251.6,1704.8,1255z"/>
<g>
	<path d="M-253.7,5309.4c-1.2,2.9-3.2,4.4-5.6,4.4c-4.6,0-6.8-4.6-5.8-7.8l14.1-51.2c-2.9-6.3-21.4-63.6-27.7-117.3
		c-1.2-7.3,10.4-9.7,11.9-1.5c2.7,21.1,6.8,42.7,11.4,61.2c2.2,9.2,4.6,17.7,6.8,25.5c2.2,7.5,3.4,11.4,3.2,11.2l27.4-99
		c3.2-6.3,13.6-4.6,11.7,3.6L-253.7,5309.4z"/>
	<path d="M-200,5138.5c-1-4.1,2.7-7.5,6.8-7.5c20.1-1,36.4,8.3,44.9,25.7c9,18.9,6.8,43.5-6.1,58.3c-3.2,3.6-5.8,5.8-7.8,6.8
		c6.6,2.7,12.6,9.5,17.7,19.9c9.7,19.7,6.3,44.9-6.3,60.2c-7,8-15.8,11.9-26.2,11.9c-6.1,0-11.7-1.7-15.8-2.4
		c-3.6-0.5-5.6-2.4-5.6-6.1C-198.3,5209.2-199.3,5144.1-200,5138.5z M-186.7,5213.5c9.5,2.7,17,0.5,23.1-6.6
		c9.5-10,11.4-26.5,6.6-40.1c-4.9-13.6-17.2-24-31.1-23.8C-188.2,5146.3-186.7,5173-186.7,5213.5z M-186.5,5300.4
		c10.9,3.4,19.7,1.2,26.7-6.6c9.5-10.4,11.9-27.9,6.8-41.8c-4.6-14.6-18.2-25.5-33.7-25C-186.5,5244.6-186.5,5271.3-186.5,5300.4z"
		/>
	<path d="M-126.2,5313.8c-3.2,0-6.1-2.9-6.1-6.1c0-42.5,0.5-154.9,0.5-171.2c0-3.6,2.4-5.6,7.3-5.6h42c7.8,0,7.8,11.9,0,11.9H-119
		l-1.2,75.7c1.9-0.2,10.9-1.2,26.5-1.2c7.8,0,7.8,11.9,0,11.9c-15.5,0-25.5,1.2-26.5,1.5c0,19.7-0.2,45.6-0.2,70.9h37.9
		c8,0,8,12.1,0,12.1H-126.2z"/>
	<path d="M-58.3,5240.5c0.7,35.9,1.9,60.7,2.2,65.3c0.2,4.1,0,8-5.6,8c-8.3-2.2-8.7-2.9-9.2-177c0-3.2,2.9-5.8,5.8-5.8
		c26.9,0,39.1,13.4,45.2,24.8c9.7,19.4,6.6,47.8-8.3,67C-36.9,5234.7-46.9,5240.5-58.3,5240.5z M-58.5,5228.6
		c6.6,0.2,17.5-7.5,20.9-12.9c10.7-13.8,13.8-31.8,9.7-46.1c-3.9-14.3-15.8-25.2-31.1-26.2C-59,5174.7-58.8,5206.3-58.5,5228.6z"/>
	<path d="M-2.4,5313.8c-3.2,0-6.1-2.9-6.1-6.1c0-42.5,0.5-154.9,0.5-171.2c0-3.6,2.4-5.6,7.3-5.6h42c7.8,0,7.8,11.9,0,11.9H4.8
		l-1.2,75.7c1.9-0.2,10.9-1.2,26.5-1.2c7.8,0,7.8,11.9,0,11.9c-15.5,0-25.5,1.2-26.5,1.5c0,19.7-0.2,45.6-0.2,70.9h37.9
		c8,0,8,12.1,0,12.1H-2.4z"/>
	<path d="M54.8,5138.8c-0.5-5.1,1.5-7.8,5.6-7.8c3.6,0,5.6,1.5,6.6,13.4c1,10.9,1.5,36.4,1.9,77.4H100v-85c0-7.5,12.1-7.5,12.1,0
		v170.9c0,8.5-12.1,7.5-12.1,0v-74H69.2v74c0,8.5-11.9,7.5-11.9,0C57.3,5211.4,56.1,5145.3,54.8,5138.8z"/>
	<path d="M123.5,5138.8c-0.5-5.1,1.5-7.8,5.6-7.8c3.6,0,5.6,1.5,6.6,13.4c1,10.9,1.5,36.4,1.9,77.4h31.1v-85c0-7.5,12.1-7.5,12.1,0
		v170.9c0,8.5-12.1,7.5-12.1,0v-74h-30.8v74c0,8.5-11.9,7.5-11.9,0C126,5211.4,124.8,5145.3,123.5,5138.8z"/>
	<path d="M218.9,5315.3c-10.2,0-21.1-8.5-30.1-40.1c-5.8-34-0.2-67.2-0.2-99.5c0.2-11.4,7-56.1,34-43.7c16.3,9,24,42.7,23.8,92.5
		C247.1,5274.5,237.6,5312.6,218.9,5315.3z M234.2,5224.5c0.7-53.4-9.5-77.9-17.7-81.8c-9.7-8.7-16.3,25.7-15.8,33
		c0,4.6,0,11.9-0.7,20.4c-1.2,23.8-3.2,61.2,0.7,76c3.4,12.4,6.6,20.9,9.7,25.2c3.2,4.1,5.6,6.1,6.8,5.8
		C223.3,5302.4,235,5278.6,234.2,5224.5z"/>
	<path d="M285.2,5129.5c11.7-1.7,21.1,11.7,28.6,40.1c0.7,7.8-9,10.2-11.9,3.2c-6.1-25-13.1-31.3-15.1-31.1
		c-5.1,0.7-16.5,24.5-15.8,78.7c-0.7,53.9,9,78.2,16.8,82.1c1.2,0.7,2.4,0.7,3.6,0c4.9-2.9,10.7-14.1,10.4-33.3
		c0-7.8,12.1-7.8,12.1,0c0,21.1-6.1,37.9-16.5,43.9c-5.3,2.7-10.7,2.7-15.8,0c-15.5-9.5-23.1-43-22.8-92.7
		C258.3,5170.3,267.7,5132,285.2,5129.5z"/>
	<path d="M313.1,5142.9c-7.8,0-7.8-11.9,0-11.9h53.2c7.8,0,7.8,11.9,0,11.9h-19.2v164.8c0,8.3-11.9,8.3-11.9,0v-164.8H313.1z"/>
	<path d="M418.5,5227.9c11.4,17.7,15.1,43.7,6.6,61.4c-4.6,11.2-16.3,24.5-40.3,24.5c-3.6,0-5.6-3.4-5.6-6.1
		c0-86.9,0.7-130.9,1.7-152.5s2.7-24.3,6.8-24.3c6.6,0,5.8,5.3,5.1,8c-0.7,4.1-1.2,31.1-1.9,70.6
		C398.6,5209.4,410.7,5216,418.5,5227.9z M409.5,5234.9c-2.9-6.3-13.4-13.8-18.7-13.6c-0.2,21.4-0.5,51-0.5,79.9
		c11.7-0.7,19.9-6.6,24.8-17C420.9,5270.1,418.7,5248.7,409.5,5234.9z"/>
	<path d="M482.1,5177.9c6.6-32.3,18.2-54.1,34-44.9c26.7,17.5,21.1,128.4,17.7,175.3c-1.5,8-12.4,6.8-11.9-1
		c1.9-24.3,2.7-45.9,2.9-61.4c-20.6,0-35-0.5-38.1-0.7c-0.7,17.2-0.7,37.9,0.2,61.9c0,8.7-11.9,8.5-11.9,0.2
		C472.6,5258,476,5210.6,482.1,5177.9z M524.8,5233.9c0-27.2-2.2-50.5-5.3-65.8c-2.9-15.3-6.6-23.1-9.5-25.2
		c-2.2-1-7.8,6.3-12.9,23.8c-5.1,17.2-9.5,43-9.7,66.3C490.1,5233.2,505.6,5233.9,524.8,5233.9z"/>
	<path d="M623.6,5307.7c0,7.5-12.1,8.5-12.1,0c0-33.7,0-62.9-0.2-87.6c-0.2-24.8-1.2-34.2-3.2-28.4c-1.9,5.6-3.9,12.1-5.8,19.7
		c-4.6,16.5-8.3,29.4-11.4,43.2c-2.9,5.8-8,5.6-10.7,0c-3.6-13.8-7-26.7-11.7-43.2c-1.9-7.5-3.9-14.1-5.8-19.7
		c-1.9-5.8-2.9,3.6-3.2,28.4c-0.2,24.8-0.2,53.9-0.2,87.6c0,7.5-12.1,8.5-12.1,0c0-120.4,0.7-157.6,2.7-169.2
		c0-5.6,9.5-12.4,11.7-2.7c7.5,31.8,16.5,65.3,24,91.3c2.9-10.9,6.6-24.3,11.2-40.5c4.6-16.3,8.7-33.3,12.6-50.7
		c2.2-9.2,12.6-4.6,11.7,2.7C622.9,5150.2,623.6,5187.3,623.6,5307.7z"/>
	<path d="M688.2,5130.5c8.5,0,7.3,10.9,0.2,12.1l-43.7,0.2c0,2.9,1.5,31.6,1.5,72.8c17.2-0.2,34.2,9.2,42.2,26.7
		c9.7,20.2,6.8,45.2-6.1,60.7c-7,8-15.8,11.9-26.7,11.9c-3.2-0.2-20.1,0-21.4-8.3c0-97.1-1-162.2-1.7-168.5c-1-5.1,3.2-7.3,5.8-7.3
		L688.2,5130.5z M646.2,5227.9v73.8c10.7,3.6,19.7,1.5,27.2-6.6c9.5-10.9,11.4-32,4.4-47.6C675.1,5239.8,662.5,5227.1,646.2,5227.9z
		"/>
	<path d="M718.3,5136.8c0,34.2,0.2,64.1,0.5,89.3c0.2,25,0.5,39.3,0.5,42.7l17-57.3c7.3-24.5,14.3-49.8,20.9-76.2
		c1.9-6.1,11.4-6.6,11.9,1.5c0,95.9,1.2,162.7,2.4,168.5c1,6.8-1.9,8.5-5.6,8.5c-4.1,0-6.1-2.4-7-20.9c-0.2-6.1-0.7-14.3-1-25.2
		l-0.5-41.3c-0.2-16.8-0.2-30.8-0.2-42.2c-0.5,2.2-2.4,9.5-6.1,21.8c-3.6,12.4-7,24-10.7,35.4c-6.8,22.6-13.4,43.9-19.2,67.2
		c-3.2,10.2-11.9,3.2-11.9-2.2c-1.9-11.7-2.9-48.6-2.9-169.7C706.4,5129.3,718.3,5128.3,718.3,5136.8z"/>
	<path d="M863,5320.4c0,8-11.9,7.5-11.9,0v-6.8l-12.6,0.2h-53.2c-3.2,0-6.1-2.7-6.1-5.8v-171.2c0-7.5,12.1-7.5,12.1,0v165.1h41
		c0-33-1-66.3-1.7-93.5c-1.9-61.9-2.2-74.5,5.8-77.2c3.6-1.7,6.1-1,6.8,1.9c0.7,2.9,0.7,5.3-0.5,7.5c-1.5,4.1-1,35-0.2,67.5
		c0.7,27.4,1.7,60.7,1.7,93.7l12.6-0.2c4.1,0,6.1,1.9,6.1,5.8V5320.4z"/>
	<path d="M886.8,5136.8c0,34.2,0.2,64.1,0.5,89.3c0.2,25,0.5,39.3,0.5,42.7l17-57.3c7.3-24.5,14.3-49.8,20.9-76.2
		c1.9-6.1,11.4-6.6,11.9,1.5c0,95.9,1.2,162.7,2.4,168.5c1,6.8-1.9,8.5-5.6,8.5c-4.1,0-6.1-2.4-7-20.9c-0.2-6.1-0.7-14.3-1-25.2
		l-0.5-41.3c-0.2-16.8-0.2-30.8-0.2-42.2c-0.5,2.2-2.4,9.5-6.1,21.8c-3.6,12.4-7,24-10.7,35.4c-6.8,22.6-13.4,43.9-19.2,67.2
		c-3.2,10.2-11.9,3.2-11.9-2.2c-1.9-11.7-2.9-48.6-2.9-169.7C874.9,5129.3,886.8,5128.3,886.8,5136.8z"/>
	<path d="M976.6,5315.3c-10.2,0-21.1-8.5-30.1-40.1c-5.8-34-0.2-67.2-0.2-99.5c0.2-11.4,7-56.1,34-43.7c16.3,9,24,42.7,23.8,92.5
		C1004.7,5274.5,995.3,5312.6,976.6,5315.3z M991.9,5224.5c0.7-53.4-9.5-77.9-17.7-81.8c-9.7-8.7-16.3,25.7-15.8,33
		c0,4.6,0,11.9-0.7,20.4c-1.2,23.8-3.2,61.2,0.7,76c3.4,12.4,6.6,20.9,9.7,25.2c3.2,4.1,5.6,6.1,6.8,5.8
		C980.9,5302.4,992.6,5278.6,991.9,5224.5z"/>
	<path d="M1082.7,5222.8c3.9,3.6,6.8,7,9,10.7c9.5,17.7,7.8,43-4.4,61.7c-8.5,13.4-19.7,20.2-33.3,20.2c-10.9,0-21.1-5.3-27.7-14.1
		c-7-9.2-9.7-20.4-7.5-33.5c2.9-6.1,12.6-6.8,11.9,1.9c-1.9,12.4,1.9,20.1,5.1,24.3c12.1,16.5,31.3,9.7,41.8-5.3
		c9.7-14.3,11.4-36.7,3.4-49c-6.6-11.4-18.2-16.8-35.2-15.8c-9.5-1.2-6.8-13.4,0.7-13.4c16.3,0,26.7-5.1,31.6-15.5
		c9.5-20.6-4.1-60.2-29.4-52.4c-9.5,2.7-15.1,10.7-16,22.1c-1.5,9-13.1,5.6-11.9-1c1.2-16.5,10-28.6,24.5-32.8
		c13.4-3.6,26.9,0.2,34.7,10.7c9.5,10.9,17.7,38.1,8.7,58.3c-1.7,3.6-4.1,7-7.5,10.7c-3.2,3.6-5.6,5.6-7.3,6.1
		C1075.9,5217.2,1078.8,5219.1,1082.7,5222.8z"/>
	<path d="M1108.6,5138.8c-0.5-5.1,1.5-7.8,5.6-7.8c3.6,0,5.6,1.5,6.6,13.4c1,10.9,1.5,36.4,1.9,77.4h31.1v-85c0-7.5,12.1-7.5,12.1,0
		v170.9c0,8.5-12.1,7.5-12.1,0v-74H1123v74c0,8.5-11.9,7.5-11.9,0C1111.1,5211.4,1109.8,5145.3,1108.6,5138.8z"/>
	<path d="M1204,5315.3c-10.2,0-21.1-8.5-30.1-40.1c-5.8-34-0.2-67.2-0.2-99.5c0.2-11.4,7-56.1,34-43.7c16.3,9,24,42.7,23.8,92.5
		C1232.2,5274.5,1222.7,5312.6,1204,5315.3z M1219.3,5224.5c0.7-53.4-9.5-77.9-17.7-81.8c-9.7-8.7-16.3,25.7-15.8,33
		c0,4.6,0,11.9-0.7,20.4c-1.2,23.8-3.2,61.2,0.7,76c3.4,12.4,6.6,20.9,9.7,25.2c3.2,4.1,5.6,6.1,6.8,5.8
		C1208.4,5302.4,1220.1,5278.6,1219.3,5224.5z"/>
	<path d="M1270.3,5129.5c11.7-1.7,21.1,11.7,28.6,40.1c0.7,7.8-9,10.2-11.9,3.2c-6.1-25-13.1-31.3-15.1-31.1
		c-5.1,0.7-16.5,24.5-15.8,78.7c-0.7,53.9,9,78.2,16.8,82.1c1.2,0.7,2.4,0.7,3.6,0c4.9-2.9,10.7-14.1,10.4-33.3
		c0-7.8,12.1-7.8,12.1,0c0,21.1-6.1,37.9-16.5,43.9c-5.3,2.7-10.7,2.7-15.8,0c-15.5-9.5-23.1-43-22.8-92.7
		C1243.4,5170.3,1252.8,5132,1270.3,5129.5z"/>
	<path d="M1298.2,5142.9c-7.8,0-7.8-11.9,0-11.9h53.2c7.8,0,7.8,11.9,0,11.9h-19.2v164.8c0,8.3-11.9,8.3-11.9,0v-164.8H1298.2z"/>
	<path d="M1403.6,5227.9c11.4,17.7,15.1,43.7,6.6,61.4c-4.6,11.2-16.3,24.5-40.3,24.5c-3.6,0-5.6-3.4-5.6-6.1
		c0-86.9,0.7-130.9,1.7-152.5s2.7-24.3,6.8-24.3c6.6,0,5.8,5.3,5.1,8c-0.7,4.1-1.2,31.1-1.9,70.6
		C1383.7,5209.4,1395.8,5216,1403.6,5227.9z M1394.6,5234.9c-2.9-6.3-13.4-13.8-18.7-13.6c-0.2,21.4-0.5,51-0.5,79.9
		c11.7-0.7,19.9-6.6,24.8-17C1406,5270.1,1403.8,5248.7,1394.6,5234.9z"/>
	<path d="M1501.7,5222.3l27.2,83.5c1,4.1-1.7,8-5.8,8c-3.2,0-5.1-1.5-5.8-4.4l-21.8-67.7l-22.1,67.7c-0.7,2.9-2.7,4.4-5.6,4.4
		c-4.9,0-6.8-4.4-5.8-8l26.9-83.5l-26.9-83.5c-1.9-7.8,8.5-10.7,11.2-3.9l22.3,68.2l22.1-68.2c2.9-7.8,12.1-3.2,11.4,3.6
		L1501.7,5222.3z"/>
	<path d="M1554.1,5136.8c0,34.2,0.2,64.1,0.5,89.3c0.2,25,0.5,39.3,0.5,42.7l17-57.3c7.3-24.5,14.3-49.8,20.9-76.2
		c1.9-6.1,11.4-6.6,11.9,1.5c0,95.9,1.2,162.7,2.4,168.5c1,6.8-1.9,8.5-5.6,8.5c-4.1,0-6.1-2.4-7-20.9c-0.2-6.1-0.7-14.3-1-25.2
		l-0.5-41.3c-0.2-16.8-0.2-30.8-0.2-42.2c-0.5,2.2-2.4,9.5-6.1,21.8c-3.6,12.4-7,24-10.7,35.4c-6.8,22.6-13.4,43.9-19.2,67.2
		c-3.2,10.2-11.9,3.2-11.9-2.2c-1.9-11.7-2.9-48.6-2.9-169.7C1542.2,5129.3,1554.1,5128.3,1554.1,5136.8z"/>
	<path d="M1610.9,5142.9c-7.8,0-7.8-11.9,0-11.9h53.2c7.8,0,7.8,11.9,0,11.9h-19.2v164.8c0,8.3-11.9,8.3-11.9,0v-164.8H1610.9z"/>
	<path d="M1689.8,5240.5c0.7,35.9,1.9,60.7,2.2,65.3c0.2,4.1,0,8-5.6,8c-8.3-2.2-8.7-2.9-9.2-177c0-3.2,2.9-5.8,5.8-5.8
		c26.9,0,39.1,13.4,45.2,24.8c9.7,19.4,6.6,47.8-8.3,67C1711.1,5234.7,1701.2,5240.5,1689.8,5240.5z M1689.5,5228.6
		c6.6,0.2,17.5-7.5,20.9-12.9c10.7-13.8,13.8-31.8,9.7-46.1c-3.9-14.3-15.8-25.2-31.1-26.2
		C1689.1,5174.7,1689.3,5206.3,1689.5,5228.6z"/>
	<path d="M1770.4,5315.3c-10.2,0-21.1-8.5-30.1-40.1c-5.8-34-0.2-67.2-0.2-99.5c0.2-11.4,7-56.1,34-43.7c16.3,9,24,42.7,23.8,92.5
		C1798.5,5274.5,1789.1,5312.6,1770.4,5315.3z M1785.7,5224.5c0.7-53.4-9.5-77.9-17.7-81.8c-9.7-8.7-16.3,25.7-15.8,33
		c0,4.6,0,11.9-0.7,20.4c-1.2,23.8-3.2,61.2,0.7,76c3.4,12.4,6.6,20.9,9.7,25.2c3.2,4.1,5.6,6.1,6.8,5.8
		C1774.7,5302.4,1786.4,5278.6,1785.7,5224.5z"/>
	<path d="M1836.6,5129.5c11.7-1.7,21.1,11.7,28.6,40.1c0.7,7.8-9,10.2-11.9,3.2c-6.1-25-13.1-31.3-15.1-31.1
		c-5.1,0.7-16.5,24.5-15.8,78.7c-0.7,53.9,9,78.2,16.8,82.1c1.2,0.7,2.4,0.7,3.6,0c4.9-2.9,10.7-14.1,10.4-33.3
		c0-7.8,12.1-7.8,12.1,0c0,21.1-6.1,37.9-16.5,43.9c-5.3,2.7-10.7,2.7-15.8,0c-15.5-9.5-23.1-43-22.8-92.7
		C1809.7,5170.3,1819.2,5132,1836.6,5129.5z"/>
	<path d="M1864.6,5142.9c-7.8,0-7.8-11.9,0-11.9h53.2c7.8,0,7.8,11.9,0,11.9h-19.2v164.8c0,8.3-11.9,8.3-11.9,0v-164.8H1864.6z"/>
	<path d="M1969.9,5227.9c11.4,17.7,15.1,43.7,6.6,61.4c-4.6,11.2-16.3,24.5-40.3,24.5c-3.6,0-5.6-3.4-5.6-6.1
		c0-86.9,0.7-130.9,1.7-152.5s2.7-24.3,6.8-24.3c6.6,0,5.8,5.3,5.1,8c-0.7,4.1-1.2,31.1-1.9,70.6
		C1950,5209.4,1962.2,5216,1969.9,5227.9z M1960.9,5234.9c-2.9-6.3-13.4-13.8-18.7-13.6c-0.2,21.4-0.5,51-0.5,79.9
		c11.7-0.7,19.9-6.6,24.8-17C1972.3,5270.1,1970.2,5248.7,1960.9,5234.9z"/>
	<path d="M2106.6,5326.4c-3.2,6.8-14.3,3.2-10.9-4.4l3.4-9l-71.4,0.2l3.4,8.7c3.4,8.3-8.3,10.9-11.2,4.4c-1.7-3.9-4.4-9.5-5.6-14.3
		c-1.7-4.6-2.2-10.2,4.6-10.9h22.8c0-3.2,0.2-23.1,0.2-51.5c0.2-28.9,0.5-67.2,0.5-112.9c0-3.2,2.9-5.8,5.8-5.8l41,0.2
		c2.9,0,5.8,3.2,5.8,6.1l2.9,163.9h9.5c5.3,0.2,7.3,2.9,5.6,8L2106.6,5326.4z M2054.4,5142.9c0,106.3-0.2,151.5-1,158.3h32.8
		l-2.9-158L2054.4,5142.9z"/>
	<path d="M2146.6,5315.3c-10.2,0-21.1-8.5-30.1-40.1c-5.8-34-0.2-67.2-0.2-99.5c0.2-11.4,7-56.1,34-43.7c16.3,9,24,42.7,23.8,92.5
		C2174.8,5274.5,2165.3,5312.6,2146.6,5315.3z M2161.9,5224.5c0.7-53.4-9.5-77.9-17.7-81.8c-9.7-8.7-16.3,25.7-15.8,33
		c0,4.6,0,11.9-0.7,20.4c-1.2,23.8-3.2,61.2,0.7,76c3.4,12.4,6.6,20.9,9.7,25.2c3.2,4.1,5.6,6.1,6.8,5.8
		C2151,5302.4,2162.7,5278.6,2161.9,5224.5z"/>
	<path d="M2243.5,5130.5c8.5,0,7.3,10.9,0.2,12.1l-43.7,0.2c0,2.9,1.5,31.6,1.5,72.8c17.2-0.2,34.2,9.2,42.2,26.7
		c9.7,20.2,6.8,45.2-6.1,60.7c-7,8-15.8,11.9-26.7,11.9c-3.2-0.2-20.1,0-21.4-8.3c0-97.1-1-162.2-1.7-168.5c-1-5.1,3.2-7.3,5.8-7.3
		L2243.5,5130.5z M2201.5,5227.9v73.8c10.7,3.6,19.7,1.5,27.2-6.6c9.5-10.9,11.4-32,4.4-47.6
		C2230.4,5239.8,2217.8,5227.1,2201.5,5227.9z"/>
	<path d="M2270.2,5240.5c0.7,35.9,1.9,60.7,2.2,65.3c0.2,4.1,0,8-5.6,8c-8.3-2.2-8.7-2.9-9.2-177c0-3.2,2.9-5.8,5.8-5.8
		c26.9,0,39.1,13.4,45.2,24.8c9.7,19.4,6.6,47.8-8.3,67C2291.6,5234.7,2281.6,5240.5,2270.2,5240.5z M2270,5228.6
		c6.6,0.2,17.5-7.5,20.9-12.9c10.7-13.8,13.8-31.8,9.7-46.1c-3.9-14.3-15.8-25.2-31.1-26.2C2269.5,5174.7,2269.7,5206.3,2270,5228.6
		z"/>
	<path d="M2350.8,5315.3c-10.2,0-21.1-8.5-30.1-40.1c-5.8-34-0.2-67.2-0.2-99.5c0.2-11.4,7-56.1,34-43.7c16.3,9,24,42.7,23.8,92.5
		C2379,5274.5,2369.5,5312.6,2350.8,5315.3z M2366.1,5224.5c0.7-53.4-9.5-77.9-17.7-81.8c-9.7-8.7-16.3,25.7-15.8,33
		c0,4.6,0,11.9-0.7,20.4c-1.2,23.8-3.2,61.2,0.7,76c3.4,12.4,6.6,20.9,9.7,25.2c3.2,4.1,5.6,6.1,6.8,5.8
		C2355.2,5302.4,2366.8,5278.6,2366.1,5224.5z"/>
	<path d="M2387.2,5142.9c-7.8,0-7.8-11.9,0-11.9h53.2c7.8,0,7.8,11.9,0,11.9h-19.2v164.8c0,8.3-11.9,8.3-11.9,0v-164.8H2387.2z"/>
	<path d="M2460,5177.9c6.6-32.3,18.2-54.1,34-44.9c26.7,17.5,21.1,128.4,17.7,175.3c-1.5,8-12.4,6.8-11.9-1
		c1.9-24.3,2.7-45.9,2.9-61.4c-20.6,0-35-0.5-38.1-0.7c-0.7,17.2-0.7,37.9,0.2,61.9c0,8.7-11.9,8.5-11.9,0.2
		C2450.6,5258,2454,5210.6,2460,5177.9z M2502.8,5233.9c0-27.2-2.2-50.5-5.3-65.8c-2.9-15.3-6.6-23.1-9.5-25.2
		c-2.2-1-7.8,6.3-12.9,23.8c-5.1,17.2-9.5,43-9.7,66.3C2468,5233.2,2483.6,5233.9,2502.8,5233.9z"/>
	<path d="M2580.7,5266.9c3.2-10.9,6.8-22.6,11.4-32c4.9-9.7,12.4-17.2,16.5-18c-5.1-8.7-10.2-23.8-14.8-37.4
		c-6.1-21.4-12.6-36.7-22.6-36.7c-7.8,0-7.8-11.9,0-11.9c20.9,0,26.5,23.1,34.2,44.9l5.1,15.8c1.7,5.1,2.2,6.8,1.5,5.1v-60
		c0-7.8,11.9-7.8,11.9,0v39.6c0.2,12.4,0.2,20.9,0.2,25.7c-0.2,0.2,0.7-2.4,2.9-8.3c2.2-5.8,4.1-11.9,5.8-18
		c7.8-21.8,13.4-44.9,34.2-44.9c8,0,7,11.9,0,11.9c-10,0-16.5,15.3-22.6,36.7c-4.6,13.6-10,28.6-15.1,37.1c4.6,1,11.9,8.5,16.5,18
		c4.9,9.5,8.5,21.4,11.7,32.3c4.6,17,10,32.5,15.8,35.2c6.6,4.1,2.2,13.6-5.1,10.9c-11.7-5.1-16.5-23.5-22.3-42.7
		c-5.1-22.3-15.8-43.5-21.6-42.2c0.2,44.4,1,73.3,1.7,77.9c0,3.6-0.2,7.8-5.8,7.8c-3.4,0-5.3-1.5-6.3-12.9
		c-1-10.2-1.7-34.7-1.7-72.6c-1,0.2-6.3,5.1-10.2,13.1c-3.9,7.8-6.8,18.2-9.7,28.9c-5.8,19.2-10.7,37.6-22.3,42.7
		c-8.3,3.2-11.4-8-4.9-10.9C2571,5299.2,2575.3,5283.9,2580.7,5266.9z"/>
	<path d="M2700.6,5136.8c0,34.2,0.2,64.1,0.5,89.3c0.2,25,0.5,39.3,0.5,42.7l17-57.3c7.3-24.5,14.3-49.8,20.9-76.2
		c1.9-6.1,11.4-6.6,11.9,1.5c0,95.9,1.2,162.7,2.4,168.5c1,6.8-1.9,8.5-5.6,8.5c-4.1,0-6.1-2.4-7-20.9c-0.2-6.1-0.7-14.3-1-25.2
		l-0.5-41.3c-0.2-16.8-0.2-30.8-0.2-42.2c-0.5,2.2-2.4,9.5-6.1,21.8c-3.6,12.4-7,24-10.7,35.4c-6.8,22.6-13.4,43.9-19.2,67.2
		c-3.2,10.2-11.9,3.2-11.9-2.2c-1.9-11.7-2.9-48.6-2.9-169.7C2688.7,5129.3,2700.6,5128.3,2700.6,5136.8z"/>
	<path d="M2827.1,5222.8c3.9,3.6,6.8,7,9,10.7c9.5,17.7,7.8,43-4.4,61.7c-8.5,13.4-19.7,20.2-33.3,20.2c-10.9,0-21.1-5.3-27.7-14.1
		c-7-9.2-9.7-20.4-7.5-33.5c2.9-6.1,12.6-6.8,11.9,1.9c-1.9,12.4,1.9,20.1,5.1,24.3c12.1,16.5,31.3,9.7,41.8-5.3
		c9.7-14.3,11.4-36.7,3.4-49c-6.6-11.4-18.2-16.8-35.2-15.8c-9.5-1.2-6.8-13.4,0.7-13.4c16.3,0,26.7-5.1,31.6-15.5
		c9.5-20.6-4.1-60.2-29.4-52.4c-9.5,2.7-15.1,10.7-16,22.1c-1.5,9-13.1,5.6-11.9-1c1.2-16.5,10-28.6,24.5-32.8
		c13.4-3.6,26.9,0.2,34.7,10.7c9.5,10.9,17.7,38.1,8.7,58.3c-1.7,3.6-4.1,7-7.5,10.7c-3.2,3.6-5.6,5.6-7.3,6.1
		C2820.3,5217.2,2823.2,5219.1,2827.1,5222.8z"/>
	<path d="M2853.1,5138.8c-0.5-5.1,1.5-7.8,5.6-7.8c3.6,0,5.6,1.5,6.6,13.4c1,10.9,1.5,36.4,1.9,77.4h31.1v-85c0-7.5,12.1-7.5,12.1,0
		v170.9c0,8.5-12.1,7.5-12.1,0v-74h-30.8v74c0,8.5-11.9,7.5-11.9,0C2855.5,5211.4,2854.3,5145.3,2853.1,5138.8z"/>
	<path d="M2923.7,5313.8c-3.2,0-6.1-2.9-6.1-6.1c0-42.5,0.5-154.9,0.5-171.2c0-3.6,2.4-5.6,7.3-5.6h42c7.8,0,7.8,11.9,0,11.9H2931
		l-1.2,75.7c1.9-0.2,10.9-1.2,26.5-1.2c7.8,0,7.8,11.9,0,11.9c-15.5,0-25.5,1.2-26.5,1.5c0,19.7-0.2,45.6-0.2,70.9h37.9
		c8,0,8,12.1,0,12.1H2923.7z"/>
	<path d="M3007.7,5222.3c-1.2,51.5-5.6,62.1-16.8,87.6c-1,2.7-2.9,3.9-5.6,3.9c-4.6,0-6.8-4.6-5.6-8.5c14.1-28.9,15.1-52,15.8-83.3
		l2.9-85.5c1-2.7,3.2-5.3,6.1-5.3l41-0.2c2.9,0,6.1,2.9,6.1,5.8c0,99,0,165.1,0.7,169.5c1,5.6-2.7,7.3-5.8,7.3
		c-5.1,0-5.6-2.9-6.6-23.8c-0.5-20.6-0.5-66.3-0.5-146.9l-29.1,0.2L3007.7,5222.3z"/>
	<path d="M3120.3,5313.8c-9.2,0-18.7-8.7-27.9-39.3c-1.7-6.6-2.4-15.5-2.7-25.5c-0.2-10,0.2-21.8,0.5-29.4h-15.3
		c-0.7,22.3-0.5,52.9-0.5,88.1c0,8.5-12.1,7.5-12.1,0c0-18.9,0-62.4,0.5-101.2c0.2-13.4,0.5-25.2,1-36.2c0.7-10.9,1.5-20.4,2.2-27.9
		c1-7.5,2.9-11.4,5.6-11.4c6.1,0,6.3,5.1,5.6,8c-0.7,4.1-1.5,30.1-2.2,68.7h15.8l0.7-11.9c0.7-18.7-2.2-50.5,17.5-62.6
		c5.6-3.2,11.2-3.2,16.8,0c15.8,9,24,42.2,23.3,91C3149,5273.3,3141.2,5313.1,3120.3,5313.8z M3137.1,5224.2
		c0.7-52.9-9.5-76.7-17.2-80.6c-1.7-1-3.4-1-4.9-0.2c-12.9,8.3-10.4,38.4-11.7,52.9c-1.2,23.3-3.2,60.4,0.7,74.8
		c6.6,25.5,14.6,31.1,16.5,30.6C3126.2,5300.9,3137.8,5277.6,3137.1,5224.2z"/>
	<path d="M3214.8,5130.5c8.5,0,7.3,10.9,0.2,12.1l-43.7,0.2c0,2.9,1.5,31.6,1.5,72.8c17.2-0.2,34.2,9.2,42.2,26.7
		c9.7,20.2,6.8,45.2-6.1,60.7c-7,8-15.8,11.9-26.7,11.9c-3.2-0.2-20.1,0-21.4-8.3c0-97.1-1-162.2-1.7-168.5c-1-5.1,3.2-7.3,5.8-7.3
		L3214.8,5130.5z M3172.8,5227.9v73.8c10.7,3.6,19.7,1.5,27.2-6.6c9.5-10.9,11.4-32,4.4-47.6
		C3201.7,5239.8,3189,5227.1,3172.8,5227.9z"/>
	<path d="M3244.9,5136.8c0,34.2,0.2,64.1,0.5,89.3c0.2,25,0.5,39.3,0.5,42.7l17-57.3c7.3-24.5,14.3-49.8,20.9-76.2
		c1.9-6.1,11.4-6.6,11.9,1.5c0,95.9,1.2,162.7,2.4,168.5c1,6.8-1.9,8.5-5.6,8.5c-4.1,0-6.1-2.4-7-20.9c-0.2-6.1-0.7-14.3-1-25.2
		l-0.5-41.3c-0.2-16.8-0.2-30.8-0.2-42.2c-0.5,2.2-2.4,9.5-6.1,21.8c-3.6,12.4-7,24-10.7,35.4c-6.8,22.6-13.4,43.9-19.2,67.2
		c-3.2,10.2-11.9,3.2-11.9-2.2c-1.9-11.7-2.9-48.6-2.9-169.7C3233,5129.3,3244.9,5128.3,3244.9,5136.8z"/>
	<path d="M3309.9,5313.8c-3.2,0-6.1-2.9-6.1-6.1c0-42.5,0.5-154.9,0.5-171.2c0-3.6,2.4-5.6,7.3-5.6h42c7.8,0,7.8,11.9,0,11.9h-36.4
		l-1.2,75.7c1.9-0.2,10.9-1.2,26.5-1.2c7.8,0,7.8,11.9,0,11.9c-15.5,0-25.5,1.2-26.5,1.5c0,19.7-0.2,45.6-0.2,70.9h37.9
		c8,0,8,12.1,0,12.1H3309.9z"/>
	<path d="M3399.2,5142.9c-7.8,0-7.8-11.9,0-11.9h53.2c7.8,0,7.8,11.9,0,11.9h-19.2v164.8c0,8.3-11.9,8.3-11.9,0v-164.8H3399.2z"/>
	<path d="M3478.1,5240.5c0.7,35.9,1.9,60.7,2.2,65.3c0.2,4.1,0,8-5.6,8c-8.3-2.2-8.7-2.9-9.2-177c0-3.2,2.9-5.8,5.8-5.8
		c26.9,0,39.1,13.4,45.2,24.8c9.7,19.4,6.6,47.8-8.3,67C3499.5,5234.7,3489.6,5240.5,3478.1,5240.5z M3477.9,5228.6
		c6.6,0.2,17.5-7.5,20.9-12.9c10.7-13.8,13.8-31.8,9.7-46.1c-3.9-14.3-15.8-25.2-31.1-26.2
		C3477.4,5174.7,3477.7,5206.3,3477.9,5228.6z"/>
	<path d="M3552.4,5309.4c-1.2,2.9-3.2,4.4-5.6,4.4c-4.6,0-6.8-4.6-5.8-7.8l14.1-51.2c-2.9-6.3-21.4-63.6-27.7-117.3
		c-1.2-7.3,10.4-9.7,11.9-1.5c2.7,21.1,6.8,42.7,11.4,61.2c2.2,9.2,4.6,17.7,6.8,25.5c2.2,7.5,3.4,11.4,3.2,11.2l27.4-99
		c3.2-6.3,13.6-4.6,11.7,3.6L3552.4,5309.4z"/>
	<path d="M3684.5,5326.4c-3.2,6.8-14.3,3.2-10.9-4.4l3.4-9l-71.4,0.2l3.4,8.7c3.4,8.3-8.3,10.9-11.2,4.4c-1.7-3.9-4.4-9.5-5.6-14.3
		c-1.7-4.6-2.2-10.2,4.6-10.9h22.8c0-3.2,0.2-23.1,0.2-51.5c0.2-28.9,0.5-67.2,0.5-112.9c0-3.2,2.9-5.8,5.8-5.8l41,0.2
		c2.9,0,5.8,3.2,5.8,6.1l2.9,163.9h9.5c5.3,0.2,7.3,2.9,5.6,8L3684.5,5326.4z M3632.3,5142.9c0,106.3-0.2,151.5-1,158.3h32.8
		l-2.9-158L3632.3,5142.9z"/>
	<path d="M3724.5,5315.3c-10.2,0-21.1-8.5-30.1-40.1c-5.8-34-0.2-67.2-0.2-99.5c0.2-11.4,7-56.1,34-43.7c16.3,9,24,42.7,23.8,92.5
		C3752.7,5274.5,3743.2,5312.6,3724.5,5315.3z M3739.8,5224.5c0.7-53.4-9.5-77.9-17.7-81.8c-9.7-8.7-16.3,25.7-15.8,33
		c0,4.6,0,11.9-0.7,20.4c-1.2,23.8-3.2,61.2,0.7,76c3.4,12.4,6.6,20.9,9.7,25.2c3.2,4.1,5.6,6.1,6.8,5.8
		C3728.9,5302.4,3740.6,5278.6,3739.8,5224.5z"/>
	<path d="M3789.6,5222.3c-1.2,51.5-5.6,62.1-16.8,87.6c-1,2.7-2.9,3.9-5.6,3.9c-4.6,0-6.8-4.6-5.6-8.5c14.1-28.9,15.1-52,15.8-83.3
		l2.9-85.5c1-2.7,3.2-5.3,6.1-5.3l41-0.2c2.9,0,6.1,2.9,6.1,5.8c0,99,0,165.1,0.7,169.5c1,5.6-2.7,7.3-5.8,7.3
		c-5.1,0-5.6-2.9-6.6-23.8c-0.5-20.6-0.5-66.3-0.5-146.9l-29.1,0.2L3789.6,5222.3z"/>
	<path d="M3902.2,5313.8c-9.2,0-18.7-8.7-27.9-39.3c-1.7-6.6-2.4-15.5-2.7-25.5c-0.2-10,0.2-21.8,0.5-29.4h-15.3
		c-0.7,22.3-0.5,52.9-0.5,88.1c0,8.5-12.1,7.5-12.1,0c0-18.9,0-62.4,0.5-101.2c0.2-13.4,0.5-25.2,1-36.2c0.7-10.9,1.5-20.4,2.2-27.9
		c1-7.5,2.9-11.4,5.6-11.4c6.1,0,6.3,5.1,5.6,8c-0.7,4.1-1.5,30.1-2.2,68.7h15.8l0.7-11.9c0.7-18.7-2.2-50.5,17.5-62.6
		c5.6-3.2,11.2-3.2,16.8,0c15.8,9,24,42.2,23.3,91C3930.9,5273.3,3923.1,5313.1,3902.2,5313.8z M3919,5224.2
		c0.7-52.9-9.5-76.7-17.2-80.6c-1.7-1-3.4-1-4.9-0.2c-12.9,8.3-10.4,38.4-11.7,52.9c-1.2,23.3-3.2,60.4,0.7,74.8
		c6.6,25.5,14.6,31.1,16.5,30.6C3908.1,5300.9,3919.7,5277.6,3919,5224.2z"/>
	<path d="M3996.7,5130.5c8.5,0,7.3,10.9,0.2,12.1l-43.7,0.2c0,2.9,1.5,31.6,1.5,72.8c17.2-0.2,34.2,9.2,42.2,26.7
		c9.7,20.2,6.8,45.2-6.1,60.7c-7,8-15.8,11.9-26.7,11.9c-3.2-0.2-20.1,0-21.4-8.3c0-97.1-1-162.2-1.7-168.5c-1-5.1,3.2-7.3,5.8-7.3
		L3996.7,5130.5z M3954.7,5227.9v73.8c10.7,3.6,19.7,1.5,27.2-6.6c9.5-10.9,11.4-32,4.4-47.6
		C3983.6,5239.8,3970.9,5227.1,3954.7,5227.9z"/>
	<path d="M4026.8,5136.8c0,34.2,0.2,64.1,0.5,89.3c0.2,25,0.5,39.3,0.5,42.7l17-57.3c7.3-24.5,14.3-49.8,20.9-76.2
		c1.9-6.1,11.4-6.6,11.9,1.5c0,95.9,1.2,162.7,2.4,168.5c1,6.8-1.9,8.5-5.6,8.5c-4.1,0-6.1-2.4-7-20.9c-0.2-6.1-0.7-14.3-1-25.2
		l-0.5-41.3c-0.2-16.8-0.2-30.8-0.2-42.2c-0.5,2.2-2.4,9.5-6.1,21.8c-3.6,12.4-7,24-10.7,35.4c-6.8,22.6-13.4,43.9-19.2,67.2
		c-3.2,10.2-11.9,3.2-11.9-2.2c-1.9-11.7-2.9-48.6-2.9-169.7C4014.9,5129.3,4026.8,5128.3,4026.8,5136.8z"/>
	<path d="M4091.8,5313.8c-3.2,0-6.1-2.9-6.1-6.1c0-42.5,0.5-154.9,0.5-171.2c0-3.6,2.4-5.6,7.3-5.6h42c7.8,0,7.8,11.9,0,11.9h-36.4
		l-1.2,75.7c1.9-0.2,10.9-1.2,26.5-1.2c7.8,0,7.8,11.9,0,11.9c-15.5,0-25.5,1.2-26.5,1.5c0,19.7-0.2,45.6-0.2,70.9h37.9
		c8,0,8,12.1,0,12.1H4091.8z"/>
</g>
</svg>
